<svg enable-background="new 0 0 24 24" viewBox="0 0 24 24" xmlns="http://www.w3.org/2000/svg"><g style="fill:none;stroke:#48B;stroke-width:2;stroke-linecap:round;stroke-linejoin:round;stroke-miterlimit:10"><path d="m9 6h6"/><path d="m15.512 5.147 2.488-4.147h-12l2.488 4.147c.274.456.148 1.052-.299 1.341-3.503 2.26-7.189 6.653-7.189 10.609 0 1.282.248 2.283.687 3.073v.05c0-.015.002-.029.003-.044 1.4 2.502 4.782 2.824 8.738 2.824h3.143c5.208 0 9.429-.547 9.429-5.903 0-3.956-3.686-8.349-7.189-10.61-.447-.288-.573-.884-.299-1.34z"/><path d="m9 18h5"/><path d="m9 15h4"/><path d="m11 18v-5c0-1.105.895-2 2-2 .74 0 1.386.402 1.732 1"/></g></svg>