<svg enable-background="new 0 0 24 24" viewBox="0 0 24 24" xmlns="http://www.w3.org/2000/svg"><g style="fill:none;stroke:#48B;stroke-width:2;stroke-linecap:round;stroke-linejoin:round;stroke-miterlimit:10"><path d="m12 18.99v.01"/><path d="m19.786 22c-.237-1.541-.667-3.01-1.308-4.266l-1.997-3.916c-.582-1.142-.582-2.493 0-3.635l1.997-3.916c.641-1.257 1.071-2.726 1.308-4.267"/><path d="m4.214 2c.237 1.541.667 3.01 1.308 4.266l1.997 3.916c.582 1.142.582 2.493 0 3.635l-1.998 3.917c-.64 1.256-1.07 2.725-1.307 4.266"/><path d="m3 2h18"/><path d="m3 22h18"/><path d="m12 13.99v.01"/><path d="m14 16.495v.01"/><path d="m10 16.495v.01"/><path d="m15.5 18.99v.01"/><path d="m8.5 18.99v.01"/></g></svg>