<svg enable-background="new 0 0 24 24" viewBox="0 0 24 24" xmlns="http://www.w3.org/2000/svg"><g style="fill:none;stroke:#000;stroke-width:2;stroke-linecap:round;stroke-linejoin:round;stroke-miterlimit:10"><circle cx="16.462" cy="7.538" r="1.988"/><path d="m8.028 11.755-7.028-1.405"/><path d="m1 10.35 4.217-4.217 7.028-1.406"/><path d="m12.245 15.972 1.405 7.028"/><path d="m13.65 23 4.217-4.217 1.406-7.028"/><path d="m12.245 15.972s4.382-1.571 8.103-5.292 2.439-9.467 2.439-9.467-5.747-1.281-9.467 2.439-5.292 8.103-5.292 8.103"/><path d="m9.161 18.52c.031-2.026-1.656-3.712-3.681-3.681-.748.011-1.536.248-2.219.931-2.562 2.562-2.126 7.096-2.126 7.096s4.534.435 7.096-2.126c.682-.684.918-1.472.93-2.22z"/></g></svg>